<svg xmlns="http://www.w3.org/2000/svg" width="1600" height="1600"><path d="M40 760v520h253.607c202.525 0 253.491.252 253.032 1.25-4.337 9.436-12.33 30.934-15.14 40.722-6.357 22.141-9.47 41.326-10.998 67.778l-.593 10.25h560.184l-.593-10.25c-1.528-26.452-4.641-45.637-10.998-67.778-2.81-9.788-10.803-31.286-15.14-40.722-.459-.998 50.507-1.25 253.032-1.25H1560V240H40v520m40 0v480H569.867l6.316-8.413c43.022-57.297 107.171-96.249 177.817-107.97 102.913-17.075 207.287 24.691 269.817 107.97l6.316 8.413H1520V280H80v480m373-318.984c-65.419 6.696-124.749 34.816-170.958 81.026-46.713 46.713-74.961 106.837-81.024 172.458-11.578 125.306 62.112 242.677 180.769 287.922 61.513 23.455 134.913 23.455 196.426 0 38.113-14.533 71.195-35.913 99.745-64.464 41.594-41.593 68.702-94.104 78.488-152.041 4.055-24.005 4.541-63.301 1.062-85.917-9.473-61.58-36.24-114.814-79.467-158.041-43.226-43.226-96.117-69.828-158.041-79.49-12.23-1.908-53.759-2.809-67-1.453M920 500v20h480v-40H920v20m0 160v20h480v-40H920v20m0 160v20h480v-40H920v20m0 160v20h480v-40H920v20" fill="undefined" fill-rule="evenodd"/></svg>